<svg width="27" height="30" viewBox="0 0 27 30" fill="none" xmlns="http://www.w3.org/2000/svg">
<path d="M19.6262 10.8022C21.5584 12.1827 23.9254 12.995 26.4819 12.995V8.07798C25.9981 8.07809 25.5155 8.02766 25.0422 7.92742V11.7978C22.4859 11.7978 20.1191 10.9855 18.1864 9.60514V19.6393C18.1864 24.6588 14.1152 28.7277 9.09335 28.7277C7.21958 28.7277 5.47799 28.1615 4.03125 27.1905C5.68247 28.878 7.98521 29.9248 10.5328 29.9248C15.5549 29.9248 19.6264 25.8559 19.6264 20.8361V10.8022H19.6262ZM21.4023 5.84158C20.4148 4.76333 19.7665 3.36989 19.6262 1.82939V1.19696H18.2618C18.6052 3.15494 19.7766 4.82772 21.4023 5.84158ZM7.20756 23.3386C6.65586 22.6156 6.35772 21.7312 6.35905 20.8218C6.35905 18.526 8.22122 16.6645 10.5186 16.6645C10.9468 16.6644 11.3724 16.73 11.7804 16.8594V11.8325C11.3036 11.7672 10.8223 11.7395 10.3413 11.7496V15.6623C9.93292 15.5329 9.50713 15.4672 9.07887 15.4676C6.78146 15.4676 4.9194 17.3288 4.9194 19.6249C4.9194 21.2484 5.85018 22.6539 7.20756 23.3386Z" fill="#FF004F"/>
<path d="M18.1863 9.60503C20.119 10.9854 22.4857 11.7977 25.042 11.7977V7.92732C23.6151 7.62353 22.3519 6.87824 21.4021 5.84158C19.7764 4.82762 18.6051 3.15484 18.2617 1.19696H14.6778V20.8359C14.6697 23.1254 12.8107 24.9793 10.5183 24.9793C9.16734 24.9793 7.96719 24.3356 7.2071 23.3386C5.84981 22.6539 4.91904 21.2483 4.91904 19.625C4.91904 17.3291 6.7811 15.4677 9.07851 15.4677C9.51868 15.4677 9.94293 15.5362 10.3409 15.6624V11.7497C5.40728 11.8516 1.43945 15.8807 1.43945 20.836C1.43945 23.3097 2.42753 25.5521 4.0312 27.1906C5.47794 28.1615 7.21953 28.7278 9.0933 28.7278C14.1152 28.7278 18.1864 24.6587 18.1864 19.6393L18.1863 9.60503Z" fill="white"/>
<path d="M25.0422 7.92733V6.88082C23.7555 6.88277 22.494 6.5226 21.4023 5.84149C22.3687 6.89899 23.6413 7.62817 25.0422 7.92733ZM18.2619 1.19697C18.2291 1.00985 18.2039 0.8215 18.1865 0.632428V0H13.2382V19.6392C13.2303 21.9284 11.3714 23.7822 9.07871 23.7822C8.40561 23.7822 7.7701 23.6225 7.2073 23.3387C7.96739 24.3357 9.16754 24.9792 10.5185 24.9792C12.8107 24.9792 14.67 23.1255 14.678 20.836V1.19697H18.2619ZM10.3413 11.7497V10.6356C9.92783 10.5792 9.51097 10.5508 9.0936 10.551C4.07124 10.551 0 14.62 0 19.6392C0 22.7859 1.60007 25.5591 4.0315 27.1904C2.42783 25.552 1.43976 23.3095 1.43976 20.8359C1.43976 15.8808 5.40748 11.8516 10.3413 11.7497Z" fill="#00F2EA"/>
</svg>
